<?xml version="1.0" encoding="iso-8859-1"?>
<!-- Generator: Adobe Illustrator 19.0.0, SVG Export Plug-In . SVG Version: 6.00 Build 0)  -->
<svg version="1.1" id="Layer_1" xmlns="http://www.w3.org/2000/svg" xmlns:xlink="http://www.w3.org/1999/xlink" x="0px" y="0px"
	 viewBox="0 0 512 512" style="enable-background:new 0 0 512 512;" xml:space="preserve">
<circle style="fill:#FF5B62;" cx="256" cy="256" r="256"/>
<path style="fill:#666666;" d="M93.627,91.969h324.751v361.945C374.194,490.204,317.643,512,256,512s-118.19-21.791-162.373-58.086
	V91.969z"/>
<path style="fill:#FFFFFF;" d="M108.052,107.567h295.897V464.94C362.172,494.573,311.12,512,256,512s-106.172-17.422-147.948-47.056
	V107.571V107.567z"/>
<path style="fill:#EDB937;" d="M250.273,47.19h11.46c7.09,0,12.891,5.802,12.891,12.891v29.722h-37.241V60.081
	C237.381,52.992,243.183,47.19,250.273,47.19z M256,54.755c5.686,0,10.295,4.61,10.295,10.295S261.685,75.345,256,75.345
	s-10.295-4.61-10.295-10.295C245.705,59.36,250.314,54.755,256,54.755z"/>
<path style="fill:#FAD24D;" d="M206.168,83.134h99.664c5.677,0,10.323,4.647,10.323,10.323v28.562H195.85V93.456
	c0-5.681,4.647-10.323,10.323-10.323H206.168z"/>
<path style="fill:#D1D2D4;" d="M162.373,445.084h187.254v4.443H162.373V445.084z M162.373,466.8h119.062v4.443H162.373V466.8z
	 M162.373,455.941h187.254v4.443H162.373V455.941z"/>
<g>
	<rect x="444.402" y="77.01" style="fill:#4D4D4D;" width="8.143" height="189.7"/>
	<rect x="460.69" y="77.01" style="fill:#4D4D4D;" width="8.143" height="189.7"/>
</g>
<rect x="449.861" y="77.01" style="fill:#666666;" width="13.515" height="189.7"/>
<g>
	<path style="fill:#ECF0F1;" d="M456.635,307.111l12.203-40.41H444.41l12.23,40.41H456.635z"/>
	<rect x="444.402" y="71.011" style="fill:#ECF0F1;" width="24.428" height="5.988"/>
</g>
<path style="fill:#15BDB2;" d="M450.395,59.033h12.453c3.294,0,5.99,2.693,5.99,5.99v5.99H444.41v-5.99
	c0-3.298,2.693-5.99,5.99-5.99C450.4,59.033,450.395,59.033,450.395,59.033z"/>
<path style="fill:#4D4D4D;" d="M456.131,310.03h1.016l4.064-18.069h-9.113L456.131,310.03z"/>
<rect x="193.821" y="260.691" style="fill:#FF5B62;" width="49.054" height="49.054"/>
<rect x="269.134" y="260.691" style="fill:#FAD24D;" width="49.054" height="49.054"/>
<circle style="fill:#D1D2D4;" cx="256" cy="188.292" r="44.442"/>
<g>
	<rect x="122.211" y="260.691" style="fill:#15BDB2;" width="49.054" height="49.054"/>
	<rect x="340.734" y="260.691" style="fill:#15BDB2;" width="49.054" height="49.054"/>
</g>
<rect x="193.821" y="356.584" style="fill:#FF5B62;" width="49.054" height="49.054"/>
<rect x="269.134" y="356.584" style="fill:#FAD24D;" width="49.054" height="49.054"/>
<rect x="340.734" y="356.584" style="fill:#15BDB2;" width="49.054" height="49.054"/>
<g>
	<path style="fill:#D1D2D4;" d="M144.974,260.688v-47.269c0-7.39,3.025-14.115,7.899-18.988l0.005-0.005l0.005-0.005
		c4.877-4.872,11.602-7.899,18.988-7.899h39.689v3.538H171.87c-6.424,0-12.267,2.628-16.494,6.859l-0.009,0.009
		c-4.231,4.231-6.859,10.069-6.859,16.494v47.269h-3.538L144.974,260.688z M300.446,186.525h39.689
		c7.39,0,14.115,3.025,18.992,7.903l0.005-0.005c4.872,4.872,7.899,11.597,7.899,18.997v47.269h-3.538v-47.269
		c0-6.42-2.628-12.263-6.864-16.494v-0.009c-4.231-4.231-10.069-6.859-16.494-6.859h-39.689v-3.538L300.446,186.525L300.446,186.525
		z M367.03,309.739v46.848h-3.538v-46.848H367.03z"/>
	<path style="fill:#D1D2D4;" d="M238.634,228.417v15.021v1.769h-1.769h-16.752v15.482h-3.538v-17.251v-1.769h1.769h16.752v-13.251
		H238.634z M220.112,309.744v46.849h-3.538v-46.849H220.112z M291.888,356.593v-46.849h3.538v46.849H291.888z M291.888,260.688
		v-15.482h-16.752h-1.769v-1.769v-15.021h3.538v13.251h16.752h1.769v1.769v17.251H291.888z"/>
</g>
<g>
	<path style="fill:#FEFEFE;" d="M229.442,173.629h55.139v3.769h-55.139V173.629z M229.442,201.439h32.285v3.769h-32.285V201.439z
		 M229.442,187.536h55.139v3.769h-55.139V187.536z"/>
	<path style="fill:#FEFEFE;" d="M132.176,276.872h29.13v1.991h-29.13V276.872z M132.176,291.565h17.057v1.991h-17.057V291.565z
		 M132.176,284.221h29.13v1.991h-29.13V284.221z"/>
	<path style="fill:#FEFEFE;" d="M203.78,276.872h29.13v1.991h-29.13V276.872z M203.78,291.565h17.057v1.991H203.78V291.565z
		 M203.78,284.221h29.13v1.991h-29.13V284.221z"/>
	<path style="fill:#FEFEFE;" d="M279.089,276.872h29.131v1.991h-29.131V276.872z M279.089,291.565h17.057v1.991h-17.057V291.565z
		 M279.089,284.221h29.131v1.991h-29.131V284.221z"/>
	<path style="fill:#FEFEFE;" d="M350.694,276.872h29.131v1.991h-29.131V276.872z M350.694,291.565h17.057v1.991h-17.057V291.565z
		 M350.694,284.221h29.131v1.991h-29.131V284.221z"/>
	<path style="fill:#FEFEFE;" d="M203.78,372.776h29.13v1.991h-29.13V372.776z M203.78,387.468h17.057v1.991H203.78V387.468z
		 M203.78,380.125h29.13v1.991h-29.13V380.125z"/>
	<path style="fill:#FEFEFE;" d="M279.089,372.776h29.131v1.991h-29.131V372.776z M279.089,387.468h17.057v1.991h-17.057V387.468z
		 M279.089,380.125h29.131v1.991h-29.131V380.125z"/>
	<path style="fill:#FEFEFE;" d="M350.694,372.776h29.131v1.991h-29.131V372.776z M350.694,387.468h17.057v1.991h-17.057V387.468z
		 M350.694,380.125h29.131v1.991h-29.131V380.125z"/>
</g>
<g>
</g>
<g>
</g>
<g>
</g>
<g>
</g>
<g>
</g>
<g>
</g>
<g>
</g>
<g>
</g>
<g>
</g>
<g>
</g>
<g>
</g>
<g>
</g>
<g>
</g>
<g>
</g>
<g>
</g>
</svg>
